<?xml version="1.0" encoding="UTF-8" standalone="no" ?>
<!DOCTYPE svg PUBLIC "-//W3C//DTD SVG 1.1//EN" "http://www.w3.org/Graphics/SVG/1.1/DTD/svg11.dtd">
<svg xmlns="http://www.w3.org/2000/svg" xmlns:xlink="http://www.w3.org/1999/xlink" version="1.1" width="670" height="670" viewBox="0 0 670 670" xml:space="preserve">
<desc>Created with Fabric.js 3.6.6</desc>
<defs>
</defs>
<g transform="matrix(1 0 0 1 335 334)"  >
<g style=""   >
		<g transform="matrix(33.33 0 0 33.33 0 0)"  >
<path style="stroke: none; stroke-width: 1; stroke-dasharray: none; stroke-linecap: butt; stroke-dashoffset: 0; stroke-linejoin: miter; stroke-miterlimit: 4; fill: #04ca76; fill-rule: evenodd; opacity: 1;"  transform=" translate(-12, -12)" d="M 8.25 9 C 8.25 8.58579 8.58579 8.25 9 8.25 H 15 C 15.4142 8.25 15.75 8.58579 15.75 9 C 15.75 9.41421 15.4142 9.75 15 9.75 H 12.75 V 15 C 12.75 15.4142 12.4142 15.75 12 15.75 C 11.5858 15.75 11.25 15.4142 11.25 15 V 9.75 H 9 C 8.58579 9.75 8.25 9.41421 8.25 9 Z" stroke-linecap="round" />
</g>
		<g transform="matrix(33.33 0 0 33.33 -266.67 -266.67)"  >
<path style="stroke: none; stroke-width: 1; stroke-dasharray: none; stroke-linecap: butt; stroke-dashoffset: 0; stroke-linejoin: miter; stroke-miterlimit: 4; fill: rgb(28,39,76); fill-rule: nonzero; opacity: 1;"  transform=" translate(-4, -4)" d="M 4 6 C 5.10457 6 6 5.10457 6 4 C 6 2.89543 5.10457 2 4 2 C 2.89543 2 2 2.89543 2 4 C 2 5.10457 2.89543 6 4 6 Z" stroke-linecap="round" />
</g>
		<g transform="matrix(33.33 0 0 33.33 -266.67 266.67)"  >
<path style="stroke: none; stroke-width: 1; stroke-dasharray: none; stroke-linecap: butt; stroke-dashoffset: 0; stroke-linejoin: miter; stroke-miterlimit: 4; fill: rgb(28,39,76); fill-rule: nonzero; opacity: 1;"  transform=" translate(-4, -20)" d="M 4 22 C 5.10457 22 6 21.1046 6 20 C 6 18.8954 5.10457 18 4 18 C 2.89543 18 2 18.8954 2 20 C 2 21.1046 2.89543 22 4 22 Z" stroke-linecap="round" />
</g>
		<g transform="matrix(33.33 0 0 33.33 266.67 -266.67)"  >
<path style="stroke: none; stroke-width: 1; stroke-dasharray: none; stroke-linecap: butt; stroke-dashoffset: 0; stroke-linejoin: miter; stroke-miterlimit: 4; fill: rgb(28,39,76); fill-rule: nonzero; opacity: 1;"  transform=" translate(-20, -4)" d="M 22 4 C 22 5.10457 21.1046 6 20 6 C 18.8954 6 18 5.10457 18 4 C 18 2.89543 18.8954 2 20 2 C 21.1046 2 22 2.89543 22 4 Z" stroke-linecap="round" />
</g>
		<g transform="matrix(33.33 0 0 33.33 266.67 266.67)"  >
<path style="stroke: none; stroke-width: 1; stroke-dasharray: none; stroke-linecap: butt; stroke-dashoffset: 0; stroke-linejoin: miter; stroke-miterlimit: 4; fill: rgb(28,39,76); fill-rule: nonzero; opacity: 1;"  transform=" translate(-20, -20)" d="M 20 22 C 21.1046 22 22 21.1046 22 20 C 22 18.8954 21.1046 18 20 18 C 18.8954 18 18 18.8954 18 20 C 18 21.1046 18.8954 22 20 22 Z" stroke-linecap="round" />
</g>
		<g transform="matrix(33.33 0 0 33.33 -266.67 0)"  >
<path style="stroke: none; stroke-width: 1; stroke-dasharray: none; stroke-linecap: butt; stroke-dashoffset: 0; stroke-linejoin: miter; stroke-miterlimit: 4; fill: #00bdff; fill-rule: nonzero; opacity: 0.5;"  transform=" translate(-4, -12)" d="M 4.75 5.85462 C 4.51839 5.94837 4.26523 6 4 6 C 3.73477 6 3.48161 5.94837 3.25 5.85462 V 18.1454 C 3.48161 18.0516 3.73477 18 4 18 C 4.26523 18 4.51839 18.0516 4.75 18.1454 V 5.85462 Z" stroke-linecap="round" />
</g>
		<g transform="matrix(33.33 0 0 33.33 0 -266.67)"  >
<path style="stroke: none; stroke-width: 1; stroke-dasharray: none; stroke-linecap: butt; stroke-dashoffset: 0; stroke-linejoin: miter; stroke-miterlimit: 4; fill: #00bdff; fill-rule: nonzero; opacity: 0.5;"  transform=" translate(-12, -4)" d="M 5.85462 4.75 H 18.1454 C 18.0516 4.51839 18 4.26523 18 4 C 18 3.73477 18.0516 3.48161 18.1454 3.25 H 5.85462 C 5.94837 3.48161 6 3.73477 6 4 C 6 4.26523 5.94837 4.51839 5.85462 4.75 Z" stroke-linecap="round" />
</g>
		<g transform="matrix(33.33 0 0 33.33 266.67 0)"  >
<path style="stroke: none; stroke-width: 1; stroke-dasharray: none; stroke-linecap: butt; stroke-dashoffset: 0; stroke-linejoin: miter; stroke-miterlimit: 4; fill: #00bdff; fill-rule: nonzero; opacity: 0.5;"  transform=" translate(-20, -12)" d="M 19.25 5.85462 C 19.4816 5.94837 19.7348 6 20 6 C 20.2652 6 20.5184 5.94837 20.75 5.85462 V 18.1454 C 20.5184 18.0516 20.2652 18 20 18 C 19.7348 18 19.4816 18.0516 19.25 18.1454 V 5.85462 Z" stroke-linecap="round" />
</g>
		<g transform="matrix(33.33 0 0 33.33 0 266.67)"  >
<path style="stroke: none; stroke-width: 1; stroke-dasharray: none; stroke-linecap: butt; stroke-dashoffset: 0; stroke-linejoin: miter; stroke-miterlimit: 4; fill: #00bdff; fill-rule: nonzero; opacity: 0.5;"  transform=" translate(-12, -20)" d="M 18.1454 19.25 H 5.85462 C 5.94837 19.4816 6 19.7348 6 20 C 6 20.2652 5.94837 20.5184 5.85462 20.75 H 18.1454 C 18.0516 20.5184 18 20.2652 18 20 C 18 19.7348 18.0516 19.4816 18.1454 19.25 Z" stroke-linecap="round" />
</g>
</g>
</g>
</svg>