<?xml version="1.0" encoding="utf-8"?>
<!-- Svg Vector Icons : http://www.onlinewebfonts.com/icon -->
<!DOCTYPE svg PUBLIC "-//W3C//DTD SVG 1.1//EN" "http://www.w3.org/Graphics/SVG/1.1/DTD/svg11.dtd">
<svg version="1.1" xmlns="http://www.w3.org/2000/svg" xmlns:xlink="http://www.w3.org/1999/xlink" x="0px" y="0px" viewBox="0 0 256 256" enable-background="new 0 0 256 256" xml:space="preserve">
<metadata> Svg Vector Icons : http://www.onlinewebfonts.com/icon </metadata>
<g><g><g><path fill="#8ECCC1" d="M126,10c-0.9,0.2-2.6,1.4-4,2.6c-3,3-4.1,8-3.7,17.3c0.3,8,2,12.1,5.4,13.9c4.5,2.4,9.5,0.7,11.9-4c1.4-2.6,1.5-3.9,1.5-12.3c0-7.7-0.2-9.8-1.2-12C134,11.5,130.1,9.3,126,10z"/><path fill="#8ECCC1" d="M40.7,38.2c-4,2.2-4.8,8.7-1.5,13.7c2.6,4.1,11.2,12.2,14.2,13.4c1.3,0.6,3.7,1,5.3,1c2.3,0,3.3-0.4,5.2-2.4c1.9-1.9,2.4-2.9,2.4-5.2c0-4.4-1.6-7.3-6.7-12.7c-6.3-6.6-10-8.9-14-8.9C43.8,37.3,41.6,37.7,40.7,38.2z"/><path fill="#8ECCC1" d="M204.1,39.3c-4.1,2.6-12.2,11.2-13.4,14.2c-0.6,1.3-1,3.7-1,5.3c0,2.3,0.4,3.3,2.4,5.2c1.9,1.9,2.9,2.4,5.2,2.4c4.4,0,7.3-1.6,12.7-6.7c8.2-8,10.5-13.2,8-18.6C216,36.8,209.3,35.9,204.1,39.3z"/><path fill="#8ECCC1" d="M117.6,63.9C93.5,67.8,74,84.5,66.4,107.6c-12.1,36.7,10,75.4,48,84c6.6,1.5,20.6,1.5,27.3-0.1c25-5.5,44.3-24.8,49.8-49.8c1.5-6.7,1.5-20.7,0.1-27.3c-5.7-25-25.3-44.6-49.7-49.8C135,63.1,124.3,62.8,117.6,63.9z M128,128.1v47.1h-3.3c-5.1,0-11.8-1.9-18.2-5c-4.7-2.4-7.1-4.1-11.8-8.9c-9.6-9.5-13.9-19.8-13.9-33.3c0-8.3,1.3-14,5-21.5c4.1-8.3,12.3-16.6,20.7-20.7c6.6-3.3,12.5-4.9,17.9-4.9l3.6-0.1L128,128.1L128,128.1z"/><path fill="#8ECCC1" d="M17.9,119.1c-6.9,1.7-10,8.6-6.4,13.9c2.6,3.5,5.6,4.4,15.9,4.4c8.3,0,9.7-0.1,12.3-1.5c3.3-1.7,5.1-4.5,5.1-7.8c0-3.3-1.8-6.1-5.1-7.8c-2.4-1.2-4.3-1.5-10.9-1.7C24.5,118.5,19.6,118.8,17.9,119.1z"/><path fill="#8ECCC1" d="M219.8,119c-7.7,2-11.1,8.9-6.9,13.9c3.4,4,5.2,4.5,15.5,4.5c8.2,0,9.7-0.2,12.2-1.5c7.2-3.8,7.1-12.3-0.2-15.9C237.6,118.6,223.7,117.9,219.8,119z"/><path fill="#8ECCC1" d="M51.7,191.7c-3.7,2.4-11.8,10.7-13.3,13.7c-2.4,4.5-1,10.9,2.6,12.5c5.4,2.5,10.6,0.2,18.6-8c5.1-5.4,6.7-8.3,6.7-12.7c0-2.3-0.4-3.3-2.4-5.2c-2-2-2.8-2.4-5.8-2.4C55.6,189.7,54,190.2,51.7,191.7z"/><path fill="#8ECCC1" d="M192,192.1c-2,2-2.4,2.8-2.4,5.5c0,4.3,1.3,6.7,6.9,12.5c6,6.2,9.8,8.7,13.7,8.7c5.8,0,8.6-2.7,8.6-8.5c0-3.9-2.4-7.7-8.9-13.9c-5.4-5.1-8.3-6.7-12.7-6.7C194.9,189.7,194,190.2,192,192.1z"/><path fill="#8ECCC1" d="M123.4,212.5c-3.9,2.4-4.8,5.4-4.8,16c0,7.8,0.2,9.8,1.3,12c3.6,7.3,12,7.4,15.9,0.2c1.3-2.5,1.5-3.9,1.5-12.2c0-8.4-0.2-9.6-1.6-12.3C133.2,211.4,127.8,209.8,123.4,212.5z"/></g></g></g>
</svg>